<svg width="651" height="831" viewBox="0 0 651 831" fill="none" xmlns="http://www.w3.org/2000/svg">
<path d="M552.511 197.292L495.95 292.731H321.751L265.191 197.292L200.52 307.047L408.878 674.105L617.209 307.047L552.511 197.292ZM394.643 534.109L309.095 337.26L394.643 422.61V534.109ZM423.358 534.109V422.555L508.906 337.205L423.358 534.109Z" fill="white"/>
<path d="M416.635 745.575C365.026 745.863 314.07 734.003 267.874 710.95C221.677 687.898 181.531 654.297 150.67 612.855C119.809 571.413 99.0948 523.289 90.1971 472.359C81.2995 421.429 84.4667 369.117 99.4439 319.638C114.421 270.159 140.789 224.895 176.424 187.494C212.059 150.093 255.965 121.601 304.604 104.311C353.243 87.0215 405.256 81.4188 456.452 87.9542C507.648 94.4897 556.596 112.981 599.353 141.937L650.198 73.3304C588.413 30.688 516.238 5.63651 441.363 0.8451C366.488 -3.94631 291.719 11.7018 225.02 46.1223C158.322 80.5428 102.194 132.446 62.6165 196.302C23.0391 260.158 1.49498 333.574 0.279533 408.729C-0.935914 483.883 18.2229 557.96 55.7147 623.067C93.2065 688.174 147.626 741.872 213.177 778.439C278.727 815.006 352.952 833.073 427.942 830.714C502.933 828.355 575.88 805.659 639.011 765.044L593.039 693.165C540.441 727.155 479.226 745.342 416.635 745.575V745.575Z" fill="white"/>
</svg>
